# xmcd
#
# Track frame offsets:
# 150
# 21520
# 39747
# 57510
# 70588
# 84594
# 104659
# 124609
# 141257
# 157867
# 182003
# 197668
# 211139
# 234065
# 254186
# 271740
# 287943
# 304071
# 319880
#
# Disc length: 4683 seconds
#
# Revision: 0
# Processed by: cddbd v1.5.2PL0 Copyright (c) Steve Scherf et al.
# Submitted via: Audion 3.0.2 (http://www.panic.com/audion/)
#
DISCID=18124913
DTITLE=Fine Young Cannibals - now
DYEAR=1900
DGENRE=
TTITLE0=1973
TTITLE1=All Time Love
TTITLE2=All Time Love
TTITLE3=Black Horse and the Cherry Tree (Radio Version)
TTITLE4=Brown Eyed Girl
TTITLE5=Chasing Cars
TTITLE6=Dance the Night Away
TTITLE7=Don't Look Back
TTITLE8=Ghost Town
TTITLE9=Gloria
TTITLE10=Golden Brown
TTITLE11=Hold On
TTITLE12=I Don't Want a Lover
TTITLE13=In Demand
TTITLE14=Inner Smile
TTITLE15=Johnny Come Home
TTITLE16=Leave Right Now
TTITLE17=Light My Fire
TTITLE18=Light My Fire (New Stereo Mix)
EXTD=
EXTT0=
EXTT1=
EXTT2=
EXTT3=
EXTT4=
EXTT5=
EXTT6=
EXTT7=
EXTT8=
EXTT9=
EXTT10=
EXTT11=
EXTT12=
EXTT13=
EXTT14=
EXTT15=
EXTT16=
EXTT17=
EXTT18=
PLAYORDER=
